<svg width="263" height="152" viewBox="0 0 263 152" fill="none" xmlns="http://www.w3.org/2000/svg">
<path fill-rule="evenodd" clip-rule="evenodd" d="M3.84379 134.314C10.4135 123.771 28.9515 90.3427 28.9515 90.3427L32.9877 92.631L39.9877 96.5996L43.0621 98.343C34.7009 113.486 26.983 127.432 18.4877 142.5C15.8026 146.957 10.6161 154.244 3.84388 150C-2.92837 145.756 0.673193 139.399 3.84379 134.314Z" fill="#4B4B4D"/>
<path fill-rule="evenodd" clip-rule="evenodd" d="M27.3521 41.3147C37.9878 18 65.9878 5.99995 92.6207 20.0292C65.9878 -5.00005 29.8496 15.5722 27.3521 41.3147Z" fill="#848688"/>
<path fill-rule="evenodd" clip-rule="evenodd" d="M63.9878 0C39.135 0 18.9878 20.1472 18.9878 45C18.9878 60.5901 26.9158 74.3286 38.9601 82.4037L32.9877 92.631L39.9877 96.5996L46.0336 86.2756C51.5337 88.6714 57.6056 90 63.9878 90C88.8406 90 108.988 69.8528 108.988 45C108.988 20.1472 88.8406 0 63.9878 0ZM23.9878 45C23.9878 22.9086 41.8964 5 63.9878 5C86.0792 5 103.988 22.9086 103.988 45C103.988 67.0914 86.0792 85 63.9878 85C41.8964 85 23.9878 67.0914 23.9878 45Z" fill="black"/>
<path d="M150.382 35.29V44.962H138.726V79H126.574V44.962H115.042V35.29H150.382Z" fill="black"/>
<path d="M121.096 83.29V92.962H103.612V100.65H116.508V109.888H103.612V127H91.4598V83.29H121.096Z" fill="black"/>
<path d="M197.082 69.864C197.043 70.0573 197.024 70.3087 197.024 70.618C197.024 71.314 197.217 71.8167 197.604 72.126C198.029 72.4353 198.706 72.59 199.634 72.59H203.172L201.664 81H196.618C190.122 81 186.874 78.274 186.874 72.822C186.874 72.01 186.971 70.9853 187.164 69.748L189.484 56.872H185.54L186.99 48.636H190.934L192.326 40.748H202.244L200.852 48.636H207.348L205.898 56.872H199.402L197.082 69.864ZM220.645 69.864C220.606 70.0573 220.587 70.3087 220.587 70.618C220.587 71.314 220.78 71.8167 221.167 72.126C221.592 72.4353 222.269 72.59 223.197 72.59H226.735L225.227 81H220.181C213.685 81 210.437 78.274 210.437 72.822C210.437 72.01 210.533 70.9853 210.727 69.748L213.047 56.872H209.103L210.553 48.636H214.497L215.889 40.748H225.807L224.415 48.636H230.911L229.461 56.872H222.965L220.645 69.864ZM242.061 45.272C240.514 45.272 239.277 44.866 238.349 44.054C237.46 43.2033 237.015 42.14 237.015 40.864C237.015 39.124 237.692 37.6353 239.045 36.398C240.398 35.1607 242.042 34.542 243.975 34.542C245.522 34.542 246.74 34.9673 247.629 35.818C248.518 36.63 248.963 37.6933 248.963 39.008C248.963 40.7093 248.286 42.1787 246.933 43.416C245.58 44.6533 243.956 45.272 242.061 45.272ZM246.353 48.636L240.669 81H230.751L236.435 48.636H246.353Z" fill="black"/>
<path d="M190.936 92.272C189.389 92.272 188.152 91.866 187.224 91.054C186.335 90.2033 185.89 89.14 185.89 87.864C185.89 86.124 186.567 84.6353 187.92 83.398C189.273 82.1607 190.917 81.542 192.85 81.542C194.397 81.542 195.615 81.9673 196.504 82.818C197.393 83.63 197.838 84.6933 197.838 86.008C197.838 87.7093 197.161 89.1787 195.808 90.416C194.455 91.6533 192.831 92.272 190.936 92.272ZM195.228 95.636L189.544 128H179.626L185.31 95.636H195.228ZM210.187 116.864C210.149 117.057 210.129 117.309 210.129 117.618C210.129 118.314 210.323 118.817 210.709 119.126C211.135 119.435 211.811 119.59 212.739 119.59H216.277L214.769 128H209.723C203.227 128 199.979 125.274 199.979 119.822C199.979 119.01 200.076 117.985 200.269 116.748L202.589 103.872H198.645L200.095 95.636H204.039L205.431 87.748H215.349L213.957 95.636H220.453L219.003 103.872H212.507L210.187 116.864ZM233.75 116.864C233.711 117.057 233.692 117.309 233.692 117.618C233.692 118.314 233.885 118.817 234.272 119.126C234.697 119.435 235.374 119.59 236.302 119.59H239.84L238.332 128H233.286C226.79 128 223.542 125.274 223.542 119.822C223.542 119.01 223.639 117.985 223.832 116.748L226.152 103.872H222.208L223.658 95.636H227.602L228.994 87.748H238.912L237.52 95.636H244.016L242.566 103.872H236.07L233.75 116.864ZM255.166 92.272C253.62 92.272 252.382 91.866 251.454 91.054C250.565 90.2033 250.12 89.14 250.12 87.864C250.12 86.124 250.797 84.6353 252.15 83.398C253.504 82.1607 255.147 81.542 257.08 81.542C258.627 81.542 259.845 81.9673 260.734 82.818C261.624 83.63 262.068 84.6933 262.068 86.008C262.068 87.7093 261.392 89.1787 260.038 90.416C258.685 91.6533 257.061 92.272 255.166 92.272ZM259.458 95.636L253.774 128H243.856L249.54 95.636H259.458Z" fill="black"/>
<path d="M133.184 100.494C134.692 98.561 136.413 97.0527 138.346 95.97C140.318 94.8487 142.367 94.288 144.494 94.288L142.638 104.786H139.912C137.437 104.786 135.485 105.327 134.054 106.41C132.623 107.454 131.676 109.31 131.212 111.978L128.544 127H118.626L124.31 94.636H134.228L133.184 100.494Z" fill="black"/>
<path fill-rule="evenodd" clip-rule="evenodd" d="M164.599 68.6144L162.752 79.1618L164.116 79.4031C164.14 79.3965 164.171 79.3936 164.191 79.3903L164.492 79.3698C164.563 79.3687 164.699 79.379 164.777 79.3832C168.578 79.5647 172.482 78.3136 175.382 75.9466C178.94 73.0427 180.556 70.1615 181.457 65.0671C182.057 61.6806 182.579 58.089 183.29 54.7456L173.676 53.0612C173.344 54.9731 173 56.884 172.662 58.7947C172.374 60.419 172.076 62.9262 171.606 64.395C170.689 67.2509 167.777 69.2012 164.599 68.6144Z" fill="#404040"/>
<path fill-rule="evenodd" clip-rule="evenodd" d="M149.652 62.7937C149.457 63.3227 149.66 65.228 149.761 65.7874C150.588 70.3463 152.56 73.7214 156.349 76.4826C157.07 77.008 157.848 77.4698 158.707 77.8665C159.156 78.0745 159.576 78.2705 160.048 78.4415C160.462 78.5927 161.174 78.6981 161.498 78.9401L162.752 79.1618L164.599 68.6144C162.803 68.1668 161.727 67.4965 160.845 66.3532C160.222 65.5429 159.379 63.9251 159.53 62.4927C159.431 62.6435 159.554 62.6242 159.394 62.5466C159.228 61.4109 161.316 52.6607 161.274 50.9098C160.666 50.8022 152.992 49.3954 152.442 49.3829C152.439 49.3824 152.182 49.3889 152.168 49.3892C151.94 49.4104 152.104 49.3696 151.966 49.4285L149.847 61.171C149.796 61.6364 149.832 62.3278 149.652 62.7937Z" fill="#2B2B2B"/>
<path fill-rule="evenodd" clip-rule="evenodd" d="M175.582 48.0927C175.089 48.3733 175.078 48.1977 174.667 48.7117C174.363 49.094 174.315 49.4274 174.218 49.9629C174.035 50.9929 173.843 52.0283 173.676 53.0612L183.29 54.7456C183.507 53.7187 183.68 52.624 183.857 51.586C184.036 50.5373 183.818 49.8055 183.038 49.3625C182.516 49.0665 177.817 48.2858 176.941 48.1895C176.422 48.0608 176.04 48.048 175.582 48.0927Z" fill="black"/>
<path fill-rule="evenodd" clip-rule="evenodd" d="M152.561 45.5189C152.406 46.234 151.902 48.5407 151.941 49.1972C152.153 49.117 160.986 50.6537 161.461 50.888C161.608 50.0923 162.178 47.3392 162.095 46.7583C162.028 46.2911 161.679 45.7836 161.284 45.5345C160.822 45.2437 159.993 45.1708 159.401 45.066C158.04 44.8254 156.68 44.5847 155.321 44.3443C154.631 44.2209 154.109 44.0519 153.518 44.3235C153.126 44.5029 152.596 44.9056 152.561 45.5189Z" fill="black"/>
<path fill-rule="evenodd" clip-rule="evenodd" d="M176.125 39.891L163.676 37.6886L163.379 37.7441C162.6 37.8114 162.37 37.6804 161.201 37.9646C160.335 38.1739 157.447 39.2013 157.579 40.2502C157.624 40.611 158.026 40.9064 158.496 40.6969C159.222 40.3728 160.816 38.7662 163.929 39.116C165.839 39.3293 167.982 39.8042 169.901 40.1436C174.182 40.901 177.326 40.9197 179.52 43.9019C179.68 44.1203 179.945 44.6336 180.193 44.7485C180.457 44.8691 182.214 44.9296 180.029 42.4372C179.59 41.9369 178.986 41.4198 178.349 40.9968C177.322 40.3132 176.739 40.2388 176.297 40.0034C176.146 39.9219 176.177 39.9302 176.125 39.891Z" fill="#6D6D6C"/>
<path fill-rule="evenodd" clip-rule="evenodd" d="M175.582 48.0927C176.04 48.048 176.422 48.0608 176.941 48.1895C176.722 45.3694 174.698 45.0699 172.732 44.7221C171.757 44.5496 165.965 43.4553 165.512 43.4682C165.014 43.4827 164.651 44.0133 164.947 44.4812C165.193 44.8709 166.028 44.8913 166.536 44.9812L173.758 46.2575C174.865 46.4752 175.545 47.1386 175.582 48.0927Z" fill="#6D6D6C"/>
<path fill-rule="evenodd" clip-rule="evenodd" d="M163.81 40.4665C161.671 40.2591 160.52 40.9306 159.286 41.8337C159.133 41.9474 158.652 42.4065 158.524 42.6274C158.274 43.0658 158.504 43.5276 158.931 43.6183C159.39 43.7159 159.674 43.3121 159.927 43.0532C160.249 42.7206 160.465 42.5687 160.832 42.3737C163.939 40.7245 166.7 43.0781 167.265 41.9406C167.51 41.4519 167.207 41.0839 166.821 40.9677C166.169 40.7716 164.49 40.5334 163.81 40.4665Z" fill="#6D6D6C"/>
<path fill-rule="evenodd" clip-rule="evenodd" d="M171.952 41.9013C171.557 41.93 171.18 42.1736 171.298 42.7128C171.558 43.9115 174.869 42.6239 177.259 45.3521C177.518 45.6482 177.673 45.9233 177.844 46.3199C178.465 47.7631 179.417 46.9333 179.248 46.236C179.17 45.9146 178.93 45.4577 178.753 45.198C178.292 44.5271 178.039 44.1009 177.249 43.4934C176.604 42.9978 175.866 42.6389 174.969 42.4213C174.47 42.3004 172.318 41.8745 171.952 41.9013Z" fill="#6D6D6C"/>
<path fill-rule="evenodd" clip-rule="evenodd" d="M149.652 62.7937C149.832 62.3279 149.797 61.6364 149.848 61.1709L151.966 49.4285C152.104 49.3695 151.939 49.4103 152.168 49.3892C152.181 49.3888 152.439 49.3824 152.442 49.3829C152.992 49.3954 160.666 50.8022 161.274 50.9098C161.316 52.6607 159.228 61.4109 159.394 62.5466C159.555 62.6242 159.431 62.6434 159.53 62.4927C159.47 61.209 160.176 58.1477 160.43 56.713C160.774 54.7718 161.112 52.8283 161.461 50.888C160.986 50.6537 152.153 49.117 151.941 49.1972C151.902 48.5407 152.406 46.234 152.561 45.5189C152.334 45.7016 151.099 53.3215 150.94 54.2205C150.824 54.8755 149.38 62.1548 149.652 62.7937Z" fill="#2B2B2B"/>
<path fill-rule="evenodd" clip-rule="evenodd" d="M162.798 43.1112C161.673 43.2129 161.842 44.5118 162.878 44.4436C163.832 44.3799 163.83 43.0175 162.798 43.1112Z" fill="#6D6D6C"/>
<path fill-rule="evenodd" clip-rule="evenodd" d="M169.223 41.4376C168.257 41.5799 168.508 42.87 169.477 42.7324C170.289 42.6163 170.14 41.3032 169.223 41.4376Z" fill="#6D6D6C"/>
<path fill-rule="evenodd" clip-rule="evenodd" d="M181.305 46.2676C180.426 46.5443 180.862 47.8288 181.718 47.5727C182.438 47.3555 182.229 45.977 181.305 46.2676Z" fill="#6D6D6C"/>
<path fill-rule="evenodd" clip-rule="evenodd" d="M156.052 41.8125C155.237 41.9965 155.456 43.333 156.382 43.1097C157.123 42.9319 156.964 41.6074 156.052 41.8125Z" fill="#6D6D6C"/>
<path fill-rule="evenodd" clip-rule="evenodd" d="M159.599 117.614L157.752 128.162L159.116 128.403C159.14 128.396 159.171 128.394 159.191 128.39L159.492 128.37C159.563 128.369 159.699 128.379 159.777 128.383C163.578 128.565 167.482 127.314 170.382 124.947C173.94 122.043 175.556 119.161 176.457 114.067C177.057 110.681 177.579 107.089 178.29 103.746L168.676 102.061C168.344 103.973 168 105.884 167.662 107.795C167.374 109.419 167.076 111.926 166.606 113.395C165.689 116.251 162.777 118.201 159.599 117.614Z" fill="#404040"/>
<path fill-rule="evenodd" clip-rule="evenodd" d="M144.652 111.794C144.457 112.323 144.66 114.228 144.761 114.787C145.588 119.346 147.56 122.721 151.349 125.483C152.07 126.008 152.848 126.47 153.707 126.867C154.156 127.075 154.576 127.27 155.048 127.441C155.462 127.593 156.174 127.698 156.498 127.94L157.752 128.162L159.599 117.614C157.803 117.167 156.727 116.497 155.845 115.353C155.222 114.543 154.379 112.925 154.53 111.493C154.431 111.643 154.554 111.624 154.394 111.547C154.228 110.411 156.316 101.661 156.274 99.91C155.666 99.802 147.992 98.395 147.442 98.383C147.439 98.382 147.182 98.389 147.168 98.389C146.94 98.41 147.104 98.37 146.966 98.429L144.847 110.171C144.796 110.636 144.832 111.328 144.652 111.794Z" fill="#2B2B2B"/>
<path fill-rule="evenodd" clip-rule="evenodd" d="M170.582 97.0927C170.089 97.3733 170.078 97.1977 169.667 97.7117C169.363 98.094 169.315 98.427 169.218 98.963C169.035 99.993 168.843 101.028 168.676 102.061L178.29 103.746C178.507 102.719 178.68 101.624 178.857 100.586C179.036 99.537 178.818 98.805 178.038 98.363C177.516 98.066 172.817 97.2858 171.941 97.1895C171.422 97.0608 171.04 97.048 170.582 97.0927Z" fill="black"/>
<path fill-rule="evenodd" clip-rule="evenodd" d="M147.561 94.5189C147.406 95.234 146.902 97.5407 146.941 98.197C147.153 98.117 155.986 99.654 156.461 99.888C156.608 99.092 157.178 96.3392 157.095 95.7583C157.028 95.2911 156.679 94.7836 156.284 94.5345C155.822 94.2437 154.993 94.1708 154.401 94.066C153.04 93.8254 151.68 93.5847 150.321 93.3443C149.631 93.2209 149.109 93.0519 148.518 93.3235C148.126 93.5029 147.596 93.9056 147.561 94.5189Z" fill="black"/>
<path fill-rule="evenodd" clip-rule="evenodd" d="M171.125 88.891L158.676 86.6886L158.379 86.7441C157.6 86.8114 157.37 86.6804 156.201 86.9646C155.335 87.1739 152.447 88.2013 152.579 89.2502C152.624 89.611 153.026 89.9064 153.496 89.6969C154.222 89.3728 155.816 87.7662 158.929 88.116C160.839 88.3293 162.982 88.8042 164.901 89.1436C169.182 89.901 172.326 89.9197 174.52 92.9019C174.68 93.1203 174.945 93.6336 175.193 93.7485C175.457 93.8691 177.214 93.9296 175.029 91.4372C174.59 90.9369 173.986 90.4198 173.349 89.9968C172.322 89.3132 171.739 89.2388 171.297 89.0034C171.146 88.9219 171.177 88.9302 171.125 88.891Z" fill="#6D6D6C"/>
<path fill-rule="evenodd" clip-rule="evenodd" d="M170.582 97.0927C171.04 97.048 171.422 97.0608 171.941 97.1895C171.722 94.3694 169.698 94.0699 167.732 93.7221C166.757 93.5496 160.965 92.4553 160.512 92.4682C160.014 92.4827 159.651 93.0133 159.947 93.4812C160.193 93.8709 161.028 93.8913 161.536 93.9812L168.758 95.2575C169.865 95.4752 170.545 96.1386 170.582 97.0927Z" fill="#6D6D6C"/>
<path fill-rule="evenodd" clip-rule="evenodd" d="M158.81 89.4665C156.671 89.2591 155.52 89.9306 154.286 90.8337C154.133 90.9474 153.652 91.4065 153.524 91.6274C153.274 92.0658 153.504 92.5276 153.931 92.6183C154.39 92.7159 154.674 92.3121 154.927 92.0532C155.249 91.7206 155.465 91.5687 155.832 91.3737C158.939 89.7245 161.7 92.0781 162.265 90.9406C162.51 90.4519 162.207 90.0839 161.821 89.9677C161.169 89.7716 159.49 89.5334 158.81 89.4665Z" fill="#6D6D6C"/>
<path fill-rule="evenodd" clip-rule="evenodd" d="M166.952 90.9013C166.557 90.93 166.18 91.1736 166.298 91.7128C166.558 92.9115 169.869 91.6239 172.259 94.3521C172.518 94.6482 172.673 94.9233 172.844 95.3199C173.465 96.7631 174.417 95.9333 174.248 95.236C174.17 94.9146 173.93 94.4577 173.753 94.198C173.292 93.5271 173.039 93.1009 172.249 92.4934C171.604 91.9978 170.866 91.6389 169.969 91.4213C169.47 91.3004 167.318 90.8745 166.952 90.9013Z" fill="#6D6D6C"/>
<path fill-rule="evenodd" clip-rule="evenodd" d="M144.652 111.794C144.832 111.328 144.796 110.636 144.847 110.171L146.966 98.429C147.104 98.371 146.939 98.41 147.168 98.389C147.181 98.389 147.439 98.382 147.442 98.383C147.992 98.395 155.666 99.802 156.274 99.91C156.316 101.661 154.228 110.411 154.394 111.547C154.555 111.624 154.431 111.643 154.53 111.493C154.47 110.209 155.176 107.148 155.43 105.713C155.774 103.772 156.112 101.828 156.461 99.888C155.986 99.654 147.153 98.117 146.941 98.197C146.902 97.5407 147.406 95.234 147.561 94.5189C147.334 94.7016 146.099 102.321 145.94 103.22C145.824 103.875 144.38 111.155 144.652 111.794Z" fill="#2B2B2B"/>
<path fill-rule="evenodd" clip-rule="evenodd" d="M157.798 92.1112C156.673 92.2129 156.842 93.5118 157.878 93.4436C158.832 93.3799 158.83 92.0175 157.798 92.1112Z" fill="#6D6D6C"/>
<path fill-rule="evenodd" clip-rule="evenodd" d="M164.223 90.4376C163.257 90.5799 163.508 91.87 164.477 91.7324C165.289 91.6163 165.14 90.3032 164.223 90.4376Z" fill="#6D6D6C"/>
<path fill-rule="evenodd" clip-rule="evenodd" d="M176.305 95.2676C175.426 95.5443 175.862 96.8288 176.718 96.5727C177.438 96.3555 177.229 94.977 176.305 95.2676Z" fill="#6D6D6C"/>
<path fill-rule="evenodd" clip-rule="evenodd" d="M151.052 90.8125C150.237 90.9965 150.456 92.333 151.382 92.1097C152.123 91.9319 151.964 90.6074 151.052 90.8125Z" fill="#6D6D6C"/>
</svg>
